<mxfile host="Electron" modified="2023-10-08T02:02:39.995Z" agent="Mozilla/5.0 (Windows NT 10.0; Win64; x64) AppleWebKit/537.36 (KHTML, like Gecko) draw.io/22.0.2 Chrome/114.0.5735.289 Electron/25.8.4 Safari/537.36" etag="GhKzWB9Jn2CUX0FmotZI" version="22.0.2" type="device">
  <diagram name="Page-1" id="L1GOv855L-d730MOSSZo">
    <mxGraphModel dx="1152" dy="677" grid="1" gridSize="10" guides="1" tooltips="1" connect="1" arrows="1" fold="1" page="1" pageScale="1" pageWidth="850" pageHeight="1100" math="0" shadow="0">
      <root>
        <mxCell id="0" />
        <mxCell id="1" parent="0" />
        <mxCell id="Pw808o8bTUX3skr8TiHR-1" value="&lt;font style=&quot;font-size: 19px;&quot;&gt;Users&lt;/font&gt;" style="rounded=0;whiteSpace=wrap;html=1;" parent="1" vertex="1">
          <mxGeometry x="230" y="250" width="120" height="60" as="geometry" />
        </mxCell>
        <mxCell id="Pw808o8bTUX3skr8TiHR-2" value="" style="endArrow=classic;html=1;rounded=0;exitX=1;exitY=0.5;exitDx=0;exitDy=0;entryX=0;entryY=0.5;entryDx=0;entryDy=0;" parent="1" source="Pw808o8bTUX3skr8TiHR-1" target="Pw808o8bTUX3skr8TiHR-3" edge="1">
          <mxGeometry width="50" height="50" relative="1" as="geometry">
            <mxPoint x="400" y="290" as="sourcePoint" />
            <mxPoint x="400" y="280" as="targetPoint" />
          </mxGeometry>
        </mxCell>
        <mxCell id="Pw808o8bTUX3skr8TiHR-8" value="&lt;font style=&quot;font-size: 15px;&quot;&gt;Register&lt;/font&gt;" style="edgeLabel;html=1;align=center;verticalAlign=middle;resizable=0;points=[];" parent="Pw808o8bTUX3skr8TiHR-2" vertex="1" connectable="0">
          <mxGeometry x="-0.1522" y="-1" relative="1" as="geometry">
            <mxPoint x="23" y="-1" as="offset" />
          </mxGeometry>
        </mxCell>
        <mxCell id="Pw808o8bTUX3skr8TiHR-3" value="&lt;font style=&quot;font-size: 19px;&quot;&gt;Register Form&lt;/font&gt;" style="ellipse;whiteSpace=wrap;html=1;" parent="1" vertex="1">
          <mxGeometry x="500" y="240" width="120" height="80" as="geometry" />
        </mxCell>
        <mxCell id="Pw808o8bTUX3skr8TiHR-9" value="Users Table" style="html=1;dashed=0;whiteSpace=wrap;shape=partialRectangle;right=0;" parent="1" vertex="1">
          <mxGeometry x="650" y="90" width="166.67" height="50" as="geometry" />
        </mxCell>
        <mxCell id="Pw808o8bTUX3skr8TiHR-13" value="" style="endArrow=classic;html=1;rounded=1;exitX=0.5;exitY=0;exitDx=0;exitDy=0;entryX=0;entryY=0.5;entryDx=0;entryDy=0;" parent="1" source="Pw808o8bTUX3skr8TiHR-3" target="Pw808o8bTUX3skr8TiHR-9" edge="1">
          <mxGeometry width="50" height="50" relative="1" as="geometry">
            <mxPoint x="490" y="190" as="sourcePoint" />
            <mxPoint x="540" y="140" as="targetPoint" />
            <Array as="points">
              <mxPoint x="560" y="115" />
            </Array>
          </mxGeometry>
        </mxCell>
        <mxCell id="Pw808o8bTUX3skr8TiHR-20" value="&lt;font style=&quot;font-size: 15px;&quot;&gt;Register Credentials&lt;/font&gt;" style="edgeLabel;html=1;align=center;verticalAlign=middle;resizable=0;points=[];" parent="Pw808o8bTUX3skr8TiHR-13" vertex="1" connectable="0">
          <mxGeometry x="-0.3519" y="-2" relative="1" as="geometry">
            <mxPoint as="offset" />
          </mxGeometry>
        </mxCell>
        <mxCell id="cSSG1_-SaFcdnooIsEVr-1" style="edgeStyle=orthogonalEdgeStyle;rounded=1;orthogonalLoop=1;jettySize=auto;html=1;exitX=0;exitY=1;exitDx=0;exitDy=0;entryX=0.5;entryY=0;entryDx=0;entryDy=0;" parent="1" source="Pw808o8bTUX3skr8TiHR-14" target="Pw808o8bTUX3skr8TiHR-33" edge="1">
          <mxGeometry relative="1" as="geometry">
            <Array as="points">
              <mxPoint x="868" y="350" />
              <mxPoint x="560" y="350" />
            </Array>
          </mxGeometry>
        </mxCell>
        <mxCell id="cSSG1_-SaFcdnooIsEVr-2" value="&lt;font style=&quot;font-size: 15px;&quot;&gt;Choose Programme&lt;/font&gt;" style="edgeLabel;html=1;align=center;verticalAlign=middle;resizable=0;points=[];" parent="cSSG1_-SaFcdnooIsEVr-1" vertex="1" connectable="0">
          <mxGeometry x="-0.1335" y="-1" relative="1" as="geometry">
            <mxPoint as="offset" />
          </mxGeometry>
        </mxCell>
        <mxCell id="Pw808o8bTUX3skr8TiHR-14" value="&lt;font style=&quot;font-size: 19px;&quot;&gt;Login&lt;br&gt;Form&lt;/font&gt;" style="ellipse;whiteSpace=wrap;html=1;" parent="1" vertex="1">
          <mxGeometry x="850" y="240" width="120" height="80" as="geometry" />
        </mxCell>
        <mxCell id="Pw808o8bTUX3skr8TiHR-17" value="" style="endArrow=classic;html=1;rounded=1;entryX=0.5;entryY=0;entryDx=0;entryDy=0;exitX=1;exitY=0.5;exitDx=0;exitDy=0;" parent="1" source="Pw808o8bTUX3skr8TiHR-9" target="Pw808o8bTUX3skr8TiHR-14" edge="1">
          <mxGeometry width="50" height="50" relative="1" as="geometry">
            <mxPoint x="710" y="290" as="sourcePoint" />
            <mxPoint x="760" y="240" as="targetPoint" />
            <Array as="points">
              <mxPoint x="910" y="115" />
            </Array>
          </mxGeometry>
        </mxCell>
        <mxCell id="Pw808o8bTUX3skr8TiHR-22" value="&lt;font style=&quot;font-size: 15px;&quot;&gt;Respond&lt;/font&gt;" style="edgeLabel;html=1;align=center;verticalAlign=middle;resizable=0;points=[];" parent="Pw808o8bTUX3skr8TiHR-17" vertex="1" connectable="0">
          <mxGeometry x="0.3389" y="2" relative="1" as="geometry">
            <mxPoint x="-2" as="offset" />
          </mxGeometry>
        </mxCell>
        <mxCell id="Pw808o8bTUX3skr8TiHR-23" value="" style="endArrow=classic;html=1;rounded=0;exitX=1;exitY=0.5;exitDx=0;exitDy=0;entryX=0;entryY=0.5;entryDx=0;entryDy=0;" parent="1" source="Pw808o8bTUX3skr8TiHR-3" target="Pw808o8bTUX3skr8TiHR-14" edge="1">
          <mxGeometry width="50" height="50" relative="1" as="geometry">
            <mxPoint x="570" y="290" as="sourcePoint" />
            <mxPoint x="620" y="240" as="targetPoint" />
          </mxGeometry>
        </mxCell>
        <mxCell id="Pw808o8bTUX3skr8TiHR-24" value="&lt;font style=&quot;font-size: 15px;&quot;&gt;Login Credentials&lt;/font&gt;" style="edgeLabel;html=1;align=center;verticalAlign=middle;resizable=0;points=[];" parent="Pw808o8bTUX3skr8TiHR-23" vertex="1" connectable="0">
          <mxGeometry x="-0.1087" y="-1" relative="1" as="geometry">
            <mxPoint as="offset" />
          </mxGeometry>
        </mxCell>
        <mxCell id="Pw808o8bTUX3skr8TiHR-25" value="" style="endArrow=classic;html=1;rounded=0;exitX=0.5;exitY=1;exitDx=0;exitDy=0;entryX=0.5;entryY=0;entryDx=0;entryDy=0;" parent="1" source="Pw808o8bTUX3skr8TiHR-14" target="Pw808o8bTUX3skr8TiHR-26" edge="1">
          <mxGeometry width="50" height="50" relative="1" as="geometry">
            <mxPoint x="610" y="320" as="sourcePoint" />
            <mxPoint x="910" y="430" as="targetPoint" />
          </mxGeometry>
        </mxCell>
        <mxCell id="Pw808o8bTUX3skr8TiHR-28" value="&lt;font style=&quot;font-size: 15px;&quot;&gt;Login Success&lt;/font&gt;" style="edgeLabel;html=1;align=center;verticalAlign=middle;resizable=0;points=[];" parent="Pw808o8bTUX3skr8TiHR-25" vertex="1" connectable="0">
          <mxGeometry x="-0.0877" y="2" relative="1" as="geometry">
            <mxPoint x="-2" as="offset" />
          </mxGeometry>
        </mxCell>
        <mxCell id="Pw808o8bTUX3skr8TiHR-26" value="&lt;font style=&quot;font-size: 19px;&quot;&gt;DashBoard&lt;/font&gt;" style="ellipse;whiteSpace=wrap;html=1;" parent="1" vertex="1">
          <mxGeometry x="850" y="430" width="120" height="80" as="geometry" />
        </mxCell>
        <mxCell id="Pw808o8bTUX3skr8TiHR-29" value="" style="endArrow=classic;html=1;rounded=0;exitX=0;exitY=0.5;exitDx=0;exitDy=0;" parent="1" source="Pw808o8bTUX3skr8TiHR-26" edge="1">
          <mxGeometry width="50" height="50" relative="1" as="geometry">
            <mxPoint x="850" y="469.57" as="sourcePoint" />
            <mxPoint x="620" y="470" as="targetPoint" />
          </mxGeometry>
        </mxCell>
        <mxCell id="Pw808o8bTUX3skr8TiHR-30" value="&lt;span style=&quot;font-size: 15px;&quot;&gt;Choose Programme&lt;/span&gt;" style="edgeLabel;html=1;align=center;verticalAlign=middle;resizable=0;points=[];" parent="Pw808o8bTUX3skr8TiHR-29" vertex="1" connectable="0">
          <mxGeometry x="-0.1087" y="-1" relative="1" as="geometry">
            <mxPoint as="offset" />
          </mxGeometry>
        </mxCell>
        <mxCell id="Pw808o8bTUX3skr8TiHR-33" value="&lt;span style=&quot;font-size: 19px;&quot;&gt;Programme&lt;br&gt;Selector&lt;br&gt;&lt;/span&gt;" style="ellipse;whiteSpace=wrap;html=1;" parent="1" vertex="1">
          <mxGeometry x="500" y="430" width="120" height="80" as="geometry" />
        </mxCell>
        <mxCell id="Pw808o8bTUX3skr8TiHR-40" value="" style="endArrow=classic;html=1;rounded=0;exitX=0;exitY=0.5;exitDx=0;exitDy=0;entryX=1;entryY=0.5;entryDx=0;entryDy=0;" parent="1" source="Pw808o8bTUX3skr8TiHR-33" target="Pw808o8bTUX3skr8TiHR-43" edge="1">
          <mxGeometry width="50" height="50" relative="1" as="geometry">
            <mxPoint x="500" y="469.58000000000004" as="sourcePoint" />
            <mxPoint x="350" y="470" as="targetPoint" />
          </mxGeometry>
        </mxCell>
        <mxCell id="Pw808o8bTUX3skr8TiHR-41" value="&lt;font style=&quot;font-size: 15px;&quot;&gt;Take a Test&lt;/font&gt;" style="edgeLabel;html=1;align=center;verticalAlign=middle;resizable=0;points=[];" parent="Pw808o8bTUX3skr8TiHR-40" vertex="1" connectable="0">
          <mxGeometry x="-0.1522" y="-1" relative="1" as="geometry">
            <mxPoint x="-11" y="1" as="offset" />
          </mxGeometry>
        </mxCell>
        <mxCell id="Pw808o8bTUX3skr8TiHR-43" value="&lt;font style=&quot;font-size: 19px;&quot;&gt;Model&lt;br&gt;Question&lt;br&gt;&lt;/font&gt;" style="ellipse;whiteSpace=wrap;html=1;" parent="1" vertex="1">
          <mxGeometry x="230" y="430" width="120" height="80" as="geometry" />
        </mxCell>
        <mxCell id="Pw808o8bTUX3skr8TiHR-50" value="" style="endArrow=classic;html=1;rounded=0;entryX=0.5;entryY=0;entryDx=0;entryDy=0;exitX=0.5;exitY=1;exitDx=0;exitDy=0;" parent="1" source="Pw808o8bTUX3skr8TiHR-43" target="Pw808o8bTUX3skr8TiHR-57" edge="1">
          <mxGeometry width="50" height="50" relative="1" as="geometry">
            <mxPoint x="290" y="520" as="sourcePoint" />
            <mxPoint x="290" y="620" as="targetPoint" />
          </mxGeometry>
        </mxCell>
        <mxCell id="Pw808o8bTUX3skr8TiHR-51" value="&lt;font style=&quot;font-size: 15px;&quot;&gt;On Submission&lt;/font&gt;" style="edgeLabel;html=1;align=center;verticalAlign=middle;resizable=0;points=[];" parent="Pw808o8bTUX3skr8TiHR-50" vertex="1" connectable="0">
          <mxGeometry x="-0.0877" y="2" relative="1" as="geometry">
            <mxPoint x="-2" as="offset" />
          </mxGeometry>
        </mxCell>
        <mxCell id="Pw808o8bTUX3skr8TiHR-57" value="&lt;font style=&quot;&quot;&gt;&lt;font style=&quot;font-size: 19px;&quot;&gt;Results&lt;/font&gt;&lt;br&gt;&lt;/font&gt;" style="ellipse;whiteSpace=wrap;html=1;" parent="1" vertex="1">
          <mxGeometry x="230" y="630" width="120" height="80" as="geometry" />
        </mxCell>
        <mxCell id="Pw808o8bTUX3skr8TiHR-61" value="" style="endArrow=classic;html=1;rounded=0;exitX=1;exitY=0.5;exitDx=0;exitDy=0;entryX=0;entryY=0.5;entryDx=0;entryDy=0;" parent="1" source="Pw808o8bTUX3skr8TiHR-57" target="Pw808o8bTUX3skr8TiHR-63" edge="1">
          <mxGeometry width="50" height="50" relative="1" as="geometry">
            <mxPoint x="360" y="670" as="sourcePoint" />
            <mxPoint x="490" y="670" as="targetPoint" />
          </mxGeometry>
        </mxCell>
        <mxCell id="1r52Z3jFzT-sPIsjiCvh-3" value="&lt;font style=&quot;font-size: 15px;&quot;&gt;Result Query&lt;/font&gt;" style="edgeLabel;html=1;align=center;verticalAlign=middle;resizable=0;points=[];" parent="Pw808o8bTUX3skr8TiHR-61" vertex="1" connectable="0">
          <mxGeometry x="-0.0487" relative="1" as="geometry">
            <mxPoint as="offset" />
          </mxGeometry>
        </mxCell>
        <mxCell id="Pw808o8bTUX3skr8TiHR-63" value="Result Details Table" style="html=1;dashed=0;whiteSpace=wrap;shape=partialRectangle;right=0;" parent="1" vertex="1">
          <mxGeometry x="560" y="645" width="200" height="50" as="geometry" />
        </mxCell>
        <mxCell id="1r52Z3jFzT-sPIsjiCvh-1" value="" style="endArrow=classic;html=1;rounded=1;exitX=0.5;exitY=1;exitDx=0;exitDy=0;entryX=0.5;entryY=1;entryDx=0;entryDy=0;" parent="1" source="Pw808o8bTUX3skr8TiHR-63" target="Pw808o8bTUX3skr8TiHR-57" edge="1">
          <mxGeometry width="50" height="50" relative="1" as="geometry">
            <mxPoint x="470" y="610" as="sourcePoint" />
            <mxPoint x="520" y="560" as="targetPoint" />
            <Array as="points">
              <mxPoint x="660" y="760" />
              <mxPoint x="290" y="760" />
            </Array>
          </mxGeometry>
        </mxCell>
        <mxCell id="1r52Z3jFzT-sPIsjiCvh-2" value="&lt;font style=&quot;font-size: 15px;&quot;&gt;Respond&lt;/font&gt;" style="edgeLabel;html=1;align=center;verticalAlign=middle;resizable=0;points=[];" parent="1r52Z3jFzT-sPIsjiCvh-1" vertex="1" connectable="0">
          <mxGeometry x="0.0509" y="1" relative="1" as="geometry">
            <mxPoint as="offset" />
          </mxGeometry>
        </mxCell>
      </root>
    </mxGraphModel>
  </diagram>
</mxfile>
